<?xml version="1.0" standalone="no"?>
<!DOCTYPE svg PUBLIC "-//W3C//DTD SVG 20010904//EN"
 "http://www.w3.org/TR/2001/REC-SVG-20010904/DTD/svg10.dtd">
<svg version="1.0" xmlns="http://www.w3.org/2000/svg" width="269.000000pt" height="64.000000pt" viewBox="0 0 269.000000 64.000000" preserveAspectRatio="xMidYMid meet">
  <g transform="translate(0.000000,64.000000) scale(0.100000,-0.100000)" fill="#00000" stroke="none">
    <path d="M2329 609 c-80 -9 -143 -39 -169 -82 -18 -29 -20 -51 -20 -219 0
-122 4 -196 12 -213 39 -86 278 -114 407 -48 85 43 91 62 91 266 0 180 -8 221
-52 257 -44 36 -149 51 -269 39z m91 -158 c25 -7 25 -9 30 -136 3 -81 1 -133
-5 -137 -18 -14 -83 -8 -99 8 -13 12 -16 39 -16 125 0 61 5 119 10 130 11 19
35 23 80 10z"/>
    <path d="M250 599 c-118 -3 -216 -6 -217 -7 -2 -1 -3 -33 -3 -72 l0 -70 70 0
70 0 0 -205 c0 -239 -4 -230 110 -223 103 6 100 -2 100 229 l0 199 58 0 c32 0
63 5 70 12 7 7 12 39 12 74 0 76 20 71 -270 63z"/>
    <path d="M585 584 c-12 -12 -15 -31 -13 -73 l3 -56 50 -5 50 -5 3 -115 c1 -63
7 -119 12 -124 19 -19 10 -26 -35 -26 -62 0 -85 -24 -85 -88 0 -26 5 -53 12
-60 8 -8 64 -12 188 -12 210 0 220 4 220 80 0 74 -5 80 -61 80 l-49 0 0 136
c0 134 0 135 23 134 63 -6 87 14 87 68 0 87 11 82 -200 82 -160 0 -191 -2
-205 -16z"/>
    <path d="M1076 585 c-18 -19 -22 -89 -6 -130 5 -14 27 -49 49 -79 44 -60 47
-42 -24 -147 -23 -35 -30 -57 -33 -112 -6 -89 2 -97 89 -97 90 0 109 16 109
95 0 56 28 115 55 115 6 0 23 -19 38 -42 21 -33 27 -54 27 -99 0 -66 4 -69 89
-69 87 0 101 15 101 103 0 74 -5 86 -84 192 -6 7 7 35 38 81 43 65 46 73 46
136 l0 68 -83 0 c-95 0 -107 -7 -107 -62 0 -37 -33 -118 -48 -118 -31 1 -67
59 -72 119 l-5 56 -81 3 c-65 2 -85 -1 -98 -13z"/>
    <path d="M1662 588 c-7 -7 -12 -39 -12 -75 l0 -63 50 0 c32 0 52 -5 55 -12 2
-7 5 -68 7 -136 l3 -122 -38 0 c-66 0 -77 -12 -77 -84 0 -49 4 -65 16 -70 9
-3 91 -6 183 -6 208 0 213 3 209 93 l-3 62 -50 5 -50 5 0 130 0 130 39 3 c58
4 66 15 66 88 l0 64 -193 0 c-137 0 -196 -3 -205 -12z"/>
  </g>
</svg>
